<svg xmlns="http://www.w3.org/2000/svg" width="32" height="32" viewBox="0 0 41 37" fill="none">
  <path d="M2.79 30.48C0.12 28.94 -0.79 25.54 0.75 22.87L12.77 2.09L12.80 2.04C14.16 -0.57 17.90 -0.54 19.21 2.09L29.82 20.47C30.06 20.89 29.76 21.42 29.27 21.42H25.34C24.47 21.42 23.66 20.95 23.22 20.19L17.06 9.51C16.59 8.69 15.40 8.69 14.92 9.51L2.79 30.49Z" fill="#0F3A92"/>
  <path d="M13.68 30.51H39.91C39.91 33.59 37.42 36.08 34.34 36.08H8.32C5.46 36.08 3.67 32.98 5.10 30.51L15.36 12.74C15.60 12.32 16.22 12.32 16.46 12.74L18.42 16.17C18.85 16.92 18.84 17.85 18.41 18.61L12.61 28.66C12.13 29.48 12.73 30.51 13.68 30.51Z" fill="#1D70BE"/>
  <path d="M36.92 28.79H15.61C15.11 28.79 14.81 28.25 15.07 27.83L17.11 24.40C17.56 23.66 18.35 23.21 19.21 23.21H31.62C32.56 23.21 33.15 22.20 32.70 21.38L21.31 0.74C23.97 -0.80 27.36 0.14 28.84 2.82L40.14 23.21C41.57 25.69 39.78 28.79 36.92 28.79Z" fill="#3FB228"/>
</svg>
