<svg xmlns="http://www.w3.org/2000/svg" width="150" height="37" viewBox="0 0 150 37" fill="none"><path d="M2.78523 30.4832C0.120205 28.9449 -0.79051 25.5356 0.747793 22.8735L12.7739 2.0905L12.8031 2.035C14.1604 -0.568701 17.8967 -0.536568 19.2102 2.0905L29.8177 20.4654C30.0629 20.8886 29.7565 21.4169 29.269 21.4169H25.343C24.4673 21.4169 23.6617 20.9498 23.2238 20.1939L17.059 9.51344C16.5861 8.69026 15.3981 8.69026 14.9223 9.51344L2.78521 30.4862L2.78523 30.4832Z" fill="#0F3A92"></path><path d="M13.6752 30.5095H39.9138C39.9138 33.5861 37.4181 36.0818 34.3415 36.0818H8.31894C5.45837 36.0818 3.67194 32.9848 5.10225 30.5095L15.3595 12.7447C15.6047 12.3214 16.2176 12.3214 16.4599 12.7447L18.4156 16.1686C18.8477 16.9246 18.8447 17.8529 18.4098 18.6059L12.6069 28.656C12.1311 29.4791 12.7266 30.5066 13.6752 30.5066" fill="#1D70BE"></path><path d="M36.9225 28.7871H15.6082C15.1149 28.7871 14.8114 28.25 15.0653 27.8267L17.1144 24.4028C17.5552 23.6643 18.3521 23.2119 19.2131 23.2119H31.6158C32.5557 23.2119 33.1483 22.2048 32.6959 21.3817L21.3148 0.735854C23.9652 -0.796575 27.357 0.143316 28.8428 2.82292L40.1392 23.2089C41.5695 25.6872 39.7831 28.7842 36.9225 28.7842" fill="#3FB228"></path><path d="M47.4477 28.3288H45.9531V26.665H47.4477V26.1863C47.4477 24.324 48.6648 23.2615 50.4805 23.2615C50.7257 23.2615 51.0818 23.2936 51.2803 23.3375V24.94C51.0964 24.9078 50.8483 24.8932 50.711 24.8932C49.8325 24.8932 49.2954 25.3398 49.2954 26.1863V26.665H51.1752V28.3288H49.2954V34.9666H47.4477V28.3288Z" fill="#1D70BE"></path><path d="M59.4598 26.6649V34.9635H57.7056V34.009C57.2443 34.733 56.3979 35.1474 55.3821 35.1474C53.5344 35.1474 52.2412 33.7317 52.2412 31.8198V26.662H54.089V31.5892C54.089 32.713 54.7982 33.4369 55.8608 33.4369C56.9233 33.4369 57.6151 32.713 57.6151 31.5892V26.662H59.4627L59.4598 26.6649Z" fill="#1D70BE"></path><path d="M68.4647 29.5751V34.9636H66.6169V30.0363C66.6169 28.9125 65.9077 28.1887 64.8627 28.1887C63.8177 28.1887 63.0909 28.9125 63.0909 30.0363V34.9636H61.2432V26.6649H62.9828V27.6661C63.4441 26.8955 64.3081 26.481 65.3384 26.481C67.1862 26.481 68.4647 27.7595 68.4647 29.5751Z" fill="#1D70BE"></path><path d="M78.3187 23.4951V34.9665H76.5643V33.9975C75.9483 34.736 74.9474 35.1534 73.8382 35.1534C71.4507 35.1534 69.6348 33.2736 69.6348 30.8275C69.6348 28.3813 71.4828 26.4841 73.8232 26.4841C74.9325 26.4841 75.887 26.884 76.4709 27.5932V23.498H78.3187V23.4951ZM76.4709 30.8246C76.4709 29.3008 75.4408 28.1916 74.0221 28.1916C72.6035 28.1916 71.5584 29.3008 71.5584 30.8246C71.5584 32.3482 72.5885 33.4429 74.0221 33.4429C75.455 33.4429 76.4709 32.3658 76.4709 30.8246Z" fill="#1D70BE"></path><path d="M79.5661 32.824L80.999 32.1321C81.431 33.1187 82.2451 33.6412 83.2317 33.6412C84.0637 33.6412 84.6012 33.2559 84.6012 32.6867C84.6012 32.1176 84.0174 31.8694 83.5062 31.7322L82.0904 31.3615C80.6425 30.9617 79.9189 30.1151 79.9189 28.9913C79.9189 27.4968 81.1651 26.481 82.9986 26.481C84.6304 26.481 85.9229 27.2954 86.4312 28.6206L84.9833 29.2978C84.6739 28.5126 83.9354 28.0339 82.9958 28.0339C82.2251 28.0339 81.7489 28.3871 81.7489 28.9125C81.7489 29.4379 82.2715 29.6977 82.7505 29.8378L84.2269 30.2524C85.6606 30.6522 86.4283 31.4842 86.4283 32.64C86.4283 34.1345 85.1202 35.1503 83.226 35.1503C81.5008 35.1503 80.085 34.2717 79.5625 32.8268" fill="#1D70BE"></path><path d="M97.6256 29.5751V34.9636H95.7778V30.0363C95.7778 28.9125 95.0685 28.1887 94.0234 28.1887C92.9783 28.1887 92.2511 28.9125 92.2511 30.0363V34.9636H90.4033V26.6649H92.1435V27.6661C92.6047 26.8955 93.4688 26.481 94.4989 26.481C96.3467 26.481 97.6256 27.7595 97.6256 29.5751Z" fill="#1D70BE"></path><path d="M106.816 31.3469H100.718C100.812 32.6722 101.781 33.5187 103.059 33.5187C104.046 33.5187 104.709 33.04 105.077 32.3627L106.6 33.1012C106.092 34.2863 104.738 35.1503 103.042 35.1503C100.531 35.1503 98.792 33.2414 98.792 30.8069C98.792 28.3725 100.564 26.481 102.902 26.481C105.24 26.481 106.904 28.3141 106.904 30.515C106.904 30.8069 106.875 31.0988 106.811 31.3469M104.916 29.9137C104.854 28.8045 103.962 28.0193 102.899 28.0193C101.837 28.0193 100.958 28.6965 100.742 29.9137H104.916Z" fill="#1D70BE"></path><path d="M108.911 32.179V28.3289H107.401V26.6651H107.647C108.446 26.6651 108.911 26.2184 108.911 25.4186V24.0934H110.758V26.6651H112.729V28.3289H110.758V32.179C110.758 32.8883 111.05 33.5479 112.221 33.5479C112.375 33.5479 112.574 33.5333 112.775 33.5012V34.9782C112.484 35.0249 112.113 35.0541 111.821 35.0541C109.958 35.0541 108.911 34.0063 108.911 32.1761" fill="#1D70BE"></path><path d="M126.293 26.6652L123.411 34.9667H121.765L119.81 29.0208L117.839 34.9667H116.175L113.312 26.6652H115.268L117.021 32.2404L118.779 26.6652H120.825L122.583 32.2404L124.322 26.6652H126.293Z" fill="#1D70BE"></path><path d="M126.689 30.8069C126.689 28.2966 128.599 26.481 131.047 26.481C133.496 26.481 135.405 28.2966 135.405 30.8069C135.405 33.3172 133.464 35.1503 131.047 35.1503C128.631 35.1503 126.689 33.3172 126.689 30.8069ZM133.479 30.8215C133.479 29.2979 132.449 28.1887 131.047 28.1887C129.647 28.1887 128.616 29.2979 128.616 30.8215C128.616 32.3452 129.632 33.4398 131.047 33.4398C132.463 33.4398 133.479 32.3452 133.479 30.8215Z" fill="#1D70BE"></path><path d="M141.471 26.5746V28.2385H140.47C139.331 28.2385 138.561 28.9769 138.561 30.2701V34.9666H136.713V26.6681H138.453V27.824C138.885 26.9162 139.685 26.5776 140.701 26.5776H141.471V26.5746Z" fill="#1D70BE"></path><path d="M146.968 30.0072L150 34.9665H147.954L145.765 31.3325L144.472 32.7335V34.9665H142.624V23.4951H144.472V30.2379L147.829 26.6651H150L146.968 30.0072Z" fill="#1D70BE"></path><path d="M58.4083 11.1566V20.7162H55.4077V19.1224C54.3451 20.3981 52.8858 21.0343 51.1606 21.0343C47.973 21.0343 45.9561 19.2275 45.9561 16.7873C45.9561 14.6623 47.6286 13.2553 50.5243 12.6189L55.2238 11.6091V11.1566C55.2238 9.82847 54.135 8.95275 52.5413 8.95275C50.9475 8.95275 49.7799 9.80216 49.2488 11.1566L46.4874 9.77593C47.3105 7.59833 49.7011 6.08636 52.5412 6.08636C56.0206 6.08636 58.4083 8.18511 58.4083 11.1566ZM55.2208 14.9542V14.026L51.1577 14.9279C49.9638 15.1935 49.2719 15.8824 49.2719 16.761C49.2719 17.8498 50.1476 18.5123 51.5284 18.5123C53.6533 18.5123 55.2179 16.9741 55.2179 14.9542" fill="#102147"></path><path d="M75.1346 0.934326V20.7132H72.1077V19.0406C71.0449 20.3163 69.3199 21.0314 67.4079 21.0314C63.2922 21.0314 60.1602 17.7914 60.1602 13.5706C60.1602 9.34975 63.3476 6.0834 67.3817 6.0834C69.2936 6.0834 70.9398 6.77226 71.9502 7.99533V0.934326H75.1375H75.1346ZM71.9466 13.5734C71.9466 10.9464 70.1692 9.03444 67.7261 9.03444C65.2829 9.03444 63.479 10.9464 63.479 13.5734C63.479 16.2005 65.2566 18.0861 67.7261 18.0861C70.1955 18.0861 71.9466 16.2268 71.9466 13.5734Z" fill="#102147"></path><path d="M90.9846 6.40454L85.3306 20.7162H82.4905L76.8594 6.40454H80.2313L83.9234 16.4662L87.6133 6.40454H90.9846Z" fill="#102147"></path><path d="M103.862 11.1566V20.7162H100.862V19.1224C99.7987 20.3981 98.3394 21.0343 96.6142 21.0343C93.4269 21.0343 91.4102 19.2275 91.4102 16.7873C91.4102 14.6623 93.0826 13.2553 95.9783 12.6189L100.678 11.6091V11.1566C100.678 9.82847 99.5891 8.95275 97.9951 8.95275C96.4011 8.95275 95.2334 9.80216 94.7023 11.1566L91.9413 9.77593C92.7646 7.59833 95.155 6.08636 97.9951 6.08636C101.475 6.08636 103.862 8.18511 103.862 11.1566ZM100.675 14.9542V14.026L96.6114 14.9279C95.4173 15.1935 94.7258 15.8824 94.7258 16.761C94.7258 17.8498 95.6012 18.5123 96.9821 18.5123C99.1072 18.5123 100.672 16.9741 100.672 14.9542" fill="#102147"></path><path d="M118.864 11.4222V20.7162H115.677V12.2191C115.677 10.2809 114.456 9.03452 112.65 9.03452C110.843 9.03452 109.597 10.2809 109.597 12.2191V20.7162H106.412V6.40454H109.413V8.12965C110.21 6.80154 111.695 6.08636 113.475 6.08636C116.663 6.08636 118.864 8.29019 118.864 11.4222Z" fill="#102147"></path><path d="M120.881 13.5472C120.881 9.27092 124.013 6.08636 128.237 6.08636C131.264 6.08636 133.76 7.78518 134.635 10.2021L131.874 11.5828C131.316 10.0416 129.962 9.03452 128.237 9.03452C125.902 9.03452 124.2 10.9202 124.2 13.5735C124.2 16.2269 125.899 18.0862 128.237 18.0862C129.988 18.0862 131.316 17.1025 131.874 15.5379L134.635 16.9449C133.786 19.28 131.29 21.0343 128.237 21.0343C124.043 21.0343 120.881 17.8206 120.881 13.5472Z" fill="#102147"></path><path d="M149.691 14.4754H139.178C139.338 16.7581 141.011 18.2204 143.214 18.2204C144.913 18.2204 146.054 17.3973 146.694 16.2297L149.321 17.5053C148.445 19.5485 146.107 21.0373 143.188 21.0373C138.859 21.0373 135.861 17.7447 135.861 13.5501C135.861 9.35555 138.915 6.08923 142.952 6.08923C146.989 6.08923 149.855 9.24755 149.855 13.0451C149.855 13.5501 149.803 14.0551 149.694 14.4783M146.428 12.0089C146.323 10.097 144.782 8.74261 142.949 8.74261C141.115 8.74261 139.603 9.91011 139.233 12.0089H146.428Z" fill="#102147"></path></svg>